<?xml version="1.0" encoding="UTF-8"?>
<svg xmlns="http://www.w3.org/2000/svg" xmlns:xlink="http://www.w3.org/1999/xlink" viewBox="0 0 30 30" width="30px" height="30px">
<g id="surface58783051">
<path style=" stroke:none;fill-rule:nonzero;fill:rgb(42.352942%,42.352942%,42.352942%);fill-opacity:1;" d="M 25.109375 12.800781 L 25.109375 11.878906 L 23.359375 11.878906 L 22.589844 11.863281 C 21.929688 11.863281 21.480469 12.296875 21.304688 12.800781 L 21.304688 11.878906 L 19.34375 11.878906 L 19.34375 17.867188 L 21.304688 17.867188 L 21.304688 14.59375 C 21.304688 13.996094 21.789062 13.511719 22.386719 13.511719 L 23.148438 13.511719 L 23.148438 17.863281 L 25.113281 17.863281 L 25.113281 14.59375 C 25.113281 13.996094 25.597656 13.511719 26.191406 13.511719 L 27.167969 13.511719 L 27.167969 11.875 L 26.398438 11.863281 C 25.738281 11.863281 25.289062 12.296875 25.109375 12.800781 Z M 11.152344 12.003906 L 10.097656 15.464844 L 9.046875 12.003906 L 7.085938 12.003906 L 9.214844 17.988281 L 10.984375 17.988281 L 13.113281 12.003906 Z M 3.136719 12.003906 L 3.136719 11.601562 C 3.136719 11.253906 3.417969 10.96875 3.769531 10.96875 L 5.007812 10.96875 L 5.007812 9.328125 L 3.308594 9.328125 C 2.128906 9.328125 1.175781 10.28125 1.175781 11.460938 L 1.175781 12.003906 L 0.0273438 12.003906 L 0.0273438 13.589844 L 1.175781 13.589844 L 1.175781 17.988281 L 3.136719 17.988281 L 3.136719 13.589844 L 5.007812 13.589844 L 5.007812 17.988281 L 6.96875 17.988281 L 6.96875 12.003906 Z M 15.832031 11.921875 L 15.59375 11.921875 C 13.988281 11.921875 12.683594 13.222656 12.683594 14.832031 L 12.683594 15.160156 C 12.683594 16.765625 13.988281 18.070312 15.59375 18.070312 L 16.125 18.070312 C 17.226562 18.070312 18.167969 17.390625 18.554688 16.429688 L 16.824219 15.925781 C 16.824219 15.925781 16.617188 16.515625 15.894531 16.515625 C 15.078125 16.515625 14.648438 16.070312 14.59375 15.566406 L 14.59375 15.5625 C 14.589844 15.523438 14.585938 15.488281 14.585938 15.449219 L 18.746094 15.449219 L 18.746094 14.832031 C 18.742188 13.222656 17.441406 11.921875 15.832031 11.921875 Z M 14.585938 14.296875 C 14.609375 13.757812 15.054688 13.328125 15.597656 13.328125 L 15.785156 13.328125 C 16.328125 13.328125 16.773438 13.757812 16.796875 14.296875 Z M 28.753906 15.6875 C 28.078125 15.6875 27.535156 16.234375 27.535156 16.910156 C 27.535156 17.582031 28.078125 18.128906 28.753906 18.128906 C 29.429688 18.128906 29.972656 17.582031 29.972656 16.910156 C 29.972656 16.234375 29.429688 15.6875 28.753906 15.6875 Z M 28.753906 15.6875 "/>
</g>
</svg>
