 <svg  version="1.0" xmlns="http://www.w3.org/2000/svg"  width="300.000000pt" height="129.000000pt" viewBox="0 0 300.000000 129.000000"  preserveAspectRatio="xMidYMid meet">  <g transform="translate(0.000000,129.000000) scale(0.100000,-0.100000)" fill="#395bd9" stroke="none"> <path d="M883 1108 c-87 -111 -95 -126 -79 -135 13 -7 9 -23 -21 -103 -20 -52 -55 -169 -78 -260 -23 -91 -51 -181 -63 -200 -63 -102 22 -189 131 -134 47 24 89 55 83 62 -3 2 -14 -1 -23 -9 -16 -13 -17 -12 -4 4 8 10 21 15 31 12 11 -4 38 17 86 67 182 190 324 455 324 607 0 73 -11 105 -45 127 -24 15 -29 16 -66 1 -22 -9 -46 -14 -52 -11 -23 8 -129 -91 -215 -202 -57 -74 -34 -58 28 20 58 71 166 176 183 176 4 0 -24 -30 -63 -67 -73 -68 -170 -188 -170 -210 0 -7 -5 -13 -11 -13 -5 0 -7 -4 -4 -10 3 -5 1 -10 -4 -10 -6 0 -11 -8 -11 -17 0 -9 -3 -14 -6 -10 -3 3 0 23 7 44 7 21 14 47 15 59 3 31 58 147 94 199 25 37 29 49 20 60 -21 26 -37 17 -87 -47z m345 2 c9 -17 12 -50 9 -100 -3 -67 -10 -87 -57 -180 -80 -159 -168 -295 -239 -371 -67 -72 -73 -93 -11 -37 32 30 32 29 -4 -9 -26 -28 -42 -39 -47 -31 -5 7 -21 -1 -50 -25 -44 -38 -134 -78 -156 -70 -14 5 -17 43 -7 81 4 12 22 29 40 38 29 14 33 20 28 41 -5 18 1 32 22 55 42 43 109 80 149 81 37 1 46 11 19 21 -31 12 -63 6 -119 -24 -31 -17 -59 -30 -60 -30 -7 0 33 106 59 158 15 29 24 58 20 64 -4 7 -3 8 4 4 6 -4 18 6 27 23 30 58 165 229 212 269 92 76 137 88 161 42z m-384 -165 c-9 -22 -17 -53 -19 -69 -4 -43 -23 -88 -34 -82 -4 3 -6 17 -4 31 3 13 8 23 12 21 3 -2 7 8 7 22 2 30 42 128 49 120 3 -3 -2 -22 -11 -43z m352 -142 c-46 -96 -97 -183 -109 -183 -5 0 1 15 13 33 11 17 44 78 73 134 59 119 77 131 23 16z m-418 -50 c-6 -8 -12 -32 -13 -54 -3 -44 -20 -74 -20 -34 0 12 4 21 9 17 5 -3 6 3 3 12 -10 25 12 104 23 86 5 -9 4 -20 -2 -27z"/> <path d="M1725 1148 c-54 -28 -289 -264 -281 -283 3 -8 0 -17 -6 -21 -7 -4 -8 -3 -4 4 4 7 5 12 2 12 -4 0 -15 -19 -55 -98 -10 -18 -20 -30 -23 -26 -9 9 -73 -122 -103 -210 -17 -50 -25 -97 -25 -141 0 -65 1 -69 39 -106 32 -32 46 -39 78 -39 57 0 98 17 179 71 86 59 289 272 353 369 24 37 21 33 -196 -193 -142 -148 -252 -216 -351 -217 -32 0 -72 43 -72 78 0 55 40 187 86 282 43 90 134 237 178 289 12 13 15 21 9 17 -18 -10 -16 9 2 24 12 10 15 10 15 0 0 -6 33 19 74 57 87 81 193 143 202 119 3 -9 -3 -46 -15 -83 -31 -102 -101 -203 -141 -203 -23 0 -24 -4 -10 -31 16 -28 34 -23 74 21 44 49 90 138 112 219 16 56 16 62 0 85 -21 32 -64 34 -121 4z m-435 -593 c-16 -39 -30 -65 -30 -60 0 15 55 146 58 137 1 -4 -11 -39 -28 -77z"/> <path d="M560 865 c0 -16 34 -38 43 -28 10 9 -12 43 -28 43 -8 0 -15 -7 -15 -15z"/> <path d="M2638 835 c-31 -24 -79 -72 -107 -107 -28 -35 -70 -85 -92 -111 -46 -53 -94 -84 -104 -66 -12 18 5 81 41 156 19 39 34 76 34 82 0 23 -32 9 -48 -21 -18 -32 -159 -208 -167 -208 -9 0 7 52 41 129 34 79 35 91 4 91 -14 0 -26 -19 -48 -77 -42 -112 -45 -127 -24 -153 26 -32 53 -20 98 45 20 30 39 55 40 55 2 0 1 -20 -3 -45 -6 -50 13 -85 49 -85 26 0 74 26 90 49 8 11 22 19 33 18 13 -1 21 7 26 28 19 69 206 252 232 226 16 -16 -39 -98 -119 -180 -61 -62 -71 -77 -63 -93 12 -23 11 -23 55 7 39 27 94 45 134 45 l25 -1 -30 -22 c-100 -74 -240 -223 -295 -313 -52 -87 -41 -163 24 -150 131 27 339 284 342 425 l2 56 53 32 c29 18 68 36 86 39 36 7 40 27 6 32 -21 3 -114 -38 -143 -63 -11 -10 -33 -12 -77 -8 l-63 6 29 36 c36 46 71 115 71 140 0 26 -26 51 -53 51 -12 0 -48 -20 -79 -45z m147 -276 c-10 -58 -30 -103 -77 -172 -73 -107 -211 -227 -262 -227 -56 0 33 155 166 289 54 56 165 151 174 151 3 0 3 -19 -1 -41z"/> <path d="M1949 798 c-12 -24 -27 -50 -34 -58 -7 -8 -13 -22 -13 -30 0 -8 -15 -52 -33 -98 -31 -77 -32 -84 -16 -99 16 -16 18 -16 30 1 7 10 33 56 57 102 24 46 60 101 79 122 l35 37 6 -37 c13 -71 72 -103 104 -56 24 34 19 42 -10 19 -38 -30 -52 -26 -60 17 -7 40 -29 72 -50 72 -14 0 -73 -69 -94 -110 -8 -14 -15 -20 -17 -13 -2 6 12 45 31 86 41 85 41 87 21 87 -8 0 -24 -19 -36 -42z m-51 -168 c-11 -28 -23 -48 -25 -46 -5 5 34 96 41 96 3 0 -5 -23 -16 -50z"/> <path d="M517 783 c-4 -3 -7 -18 -7 -32 0 -14 -10 -53 -22 -87 -20 -56 -26 -63 -77 -90 -173 -90 -350 -246 -372 -327 -21 -80 8 -157 59 -157 61 0 210 130 278 242 21 34 57 104 81 157 37 83 47 97 75 108 18 6 43 12 56 12 13 1 20 5 17 11 -9 15 8 12 33 -6 27 -19 41 -12 22 11 -14 17 -91 21 -121 5 -23 -13 -23 -10 -3 55 21 66 9 127 -19 98z m-114 -316 c-116 -225 -253 -366 -329 -337 -25 10 -26 13 -20 53 9 51 42 111 90 156 19 19 32 39 29 44 -3 6 -2 7 4 4 5 -4 23 8 39 26 l29 32 -30 -25 -30 -25 23 26 c12 14 28 26 35 26 20 0 168 99 160 107 -4 4 1 4 11 0 15 -6 17 -4 11 7 -7 12 -5 12 6 1 12 -11 7 -26 -28 -95z"/> </g> </svg> 